<?xml version="1.0" standalone="no"?><!-- Generator: Gravit.io -->
<svg xmlns="http://www.w3.org/2000/svg" 
  xmlns:xlink="http://www.w3.org/1999/xlink" style="isolation:isolate" viewBox="0 0 119 89.31" width="119" height="89.31">
  <defs>
    <clipPath id="_clipPath_HzXAuEbD6zRUu5CVXW2h8NxqiyOQALLa">
      <rect width="119" height="89.31"/>
    </clipPath>
  </defs>
  <g clip-path="url(#_clipPath_HzXAuEbD6zRUu5CVXW2h8NxqiyOQALLa)">
    <clipPath id="_clipPath_Jq6vw1UUcf5z0ZbZR5owmdQSzSrvk3KH">
      <rect x="0" y="0" width="119" height="89.31" transform="matrix(1,0,0,1,0,0)" fill="rgb(255,255,255)"/>
    </clipPath>
    <g clip-path="url(#_clipPath_Jq6vw1UUcf5z0ZbZR5owmdQSzSrvk3KH)">
      <g>
        <g>
          <path d=" M 50 89.151 L 50 85.103 L 105.306 85.092 L 105.306 35.094 L 54.83 35.094 L 54.83 31 L 111.569 31 C 115.603 31 119 34.846 119 39.684 L 119 80.625 C 119 85.464 115.603 89.31 111.463 89.31 L 50 89.151 Z " fill="#999"/>
          <path d=" M 48.338 2 L 8.459 2 C 3.746 2 0 5.215 0 9.033 L 0 82.277 C 0 86.195 3.867 89.31 8.459 89.31 L 48.338 89.31 C 53.051 89.31 56.797 86.095 56.797 82.277 L 56.797 9.133 C 56.797 5.215 53.051 2 48.338 2 Z  M 19.094 7.626 L 37.825 7.626 C 38.67 7.626 39.275 8.129 39.275 8.832 C 39.275 9.535 38.67 10.038 37.825 10.038 L 19.094 10.038 C 18.248 10.038 17.643 9.535 17.643 8.832 C 17.643 8.129 18.248 7.626 19.094 7.626 Z  M 28.399 86.396 C 25.619 86.396 23.323 84.487 23.323 82.176 C 23.323 79.865 25.619 77.957 28.399 77.957 C 31.178 77.957 33.474 79.865 33.474 82.176 C 33.474 84.487 31.178 86.396 28.399 86.396 Z  M 52.688 74.942 L 3.988 74.942 L 3.988 14.961 L 52.688 14.961 L 52.688 74.942 Z " fill="#999"/>
        </g>
        <g>
          <path d=" M 50 89.151 L 50 85.103 L 105.306 85.092 L 105.306 35.094 L 54.83 35.094 L 54.83 31 L 111.569 31 C 115.603 31 119 34.846 119 39.684 L 119 80.625 C 119 85.464 115.603 89.31 111.463 89.31 L 50 89.151 Z " fill="#999"/>
          <path d=" M 112.843 51.723 L 112.843 68.587 C 112.843 69.349 112.312 69.893 111.569 69.893 C 110.826 69.893 110.295 69.349 110.295 68.587 L 110.295 51.723 C 110.295 50.961 110.826 50.417 111.569 50.417 C 112.312 50.417 112.843 50.961 112.843 51.723 Z " fill="#333" />
        </g>
        <g>
          <g transform="matrix(1,0,0,1,10.758,29)">
            <text transform="matrix(1,0,0,1,0,9.62)" style="font-family:'Open Sans';font-weight:700;font-size:9px;font-style:normal;fill:#df9;stroke:none;">Please </text>
          </g>
          <g transform="matrix(1,0,0,1,8.71,41.256)">
            <text transform="matrix(1,0,0,1,0,9.62)" style="font-family:'Open Sans';font-weight:700;font-size:9px;font-style:normal;fill:#df9;stroke:none;">Use The</text>
          </g>
          <g transform="matrix(1,0,0,1,8.319,53.512)">
            <text transform="matrix(1,0,0,1,0,9.62)" style="font-family:'Open Sans';font-weight:700;font-size:9px;font-style:normal;fill:#df9;stroke:none;">Website</text>
          </g>
        </g>
        <g>
          <g transform="matrix(1,0,0,1,59.973,54)">
            <text transform="matrix(1,0,0,1,0,8.551)" style="font-family:'Open Sans';font-weight:700;font-size:8px;font-style:normal;fill:#df9;stroke:none;">In </text>
          </g>
          <g transform="matrix(1,0,0,1,69.957,54)">
            <text transform="matrix(1,0,0,1,0,8.551)" style="font-family:'Open Sans';font-weight:700;font-size:8px;font-style:normal;fill:#935411;stroke:none;">Portrait </text>
          </g>
          <g transform="matrix(1,0,0,1,68.756,64.894)">
            <text transform="matrix(1,0,0,1,0,8.551)" style="font-family:'Open Sans';font-weight:700;font-size:8px;font-style:normal;fill:#df9;stroke:none;">Mode</text>
          </g>
        </g>
      </g>
    </g>
    <g>
      <path d=" M 81.036 2.255 C 81.036 2.204 81.036 2.204 81.036 2.255 C 81.036 2.204 81.036 2.204 81.036 2.255 C 81.036 2.153 80.957 2.051 80.957 2 C 81.036 2.051 81.036 2.153 81.036 2.255 C 80.402 2.869 78.897 3.277 77.867 3.635 C 76.758 4.044 75.569 4.453 74.46 4.81 C 72.083 5.577 69.548 6.292 67.091 6.905 C 67.012 6.905 66.933 9.562 67.091 9.613 C 71.449 11.401 75.886 13.19 80.244 14.978 C 80.085 14.927 80.244 13.752 80.244 13.599 C 80.244 13.445 80.402 12.321 80.244 12.219 C 78.501 11.504 76.758 10.839 75.094 10.124 C 77.392 10.226 79.61 10.431 81.828 10.737 C 89.435 11.759 96.724 14.007 102.825 17.124 C 108.846 20.241 115.423 24.788 115.977 30 C 115.898 29.387 116.056 28.212 115.977 27.394 C 115.66 24.328 113.283 21.62 110.352 19.27 C 101.716 12.321 88.484 7.978 74.698 7.416 C 75.648 7.109 76.678 6.752 77.629 6.394 C 78.738 5.985 80.64 5.577 80.957 4.759 C 80.957 4.81 80.957 4.861 81.036 4.861 C 81.036 4.759 81.036 4.708 81.036 4.606 C 81.036 4.606 81.036 4.606 81.036 4.555 C 81.195 3.942 81.274 2.971 81.036 2.255 Z  M 81.036 2.715 C 81.036 2.613 81.036 2.46 81.036 2.358 C 81.115 2.46 81.115 2.613 81.036 2.715 Z " fill="rgb(19,21,155)"/>
    </g>
  </g>
</svg>