<?xml version="1.0" standalone="no"?><!-- Generator: Gravit.io --><svg xmlns="http://www.w3.org/2000/svg" xmlns:xlink="http://www.w3.org/1999/xlink" style="isolation:isolate" viewBox="-253 -134.5 504 274.5" width="504" height="274.5"><defs><clipPath id="_clipPath_pgwdILo8pdlSqdMbj66ekXmm6YWAjGlg"><rect x="-253" y="-134.5" width="504" height="274.5"/></clipPath></defs><g clip-path="url(#_clipPath_pgwdILo8pdlSqdMbj66ekXmm6YWAjGlg)"><g><path d=" M 128.768 14.066 L 22.369 -121.553 C 16.243 -129.332 5.926 -134 -5.682 -134 C -17.289 -134 -27.606 -129.332 -33.732 -121.553 L -139.486 14.066 L -139.486 14.326 C -142.388 18.215 -144 22.883 -144 27.55 C -144 42.072 -129.169 54 -111.113 54 L 100.072 54 C 118.128 54 132.959 42.072 132.959 27.55 C 133.282 22.883 131.67 18.215 128.768 14.066 Z  M 100.395 38.441 L -111.113 38.441 C -118.529 38.441 -124.655 33.514 -124.655 27.55 C -124.655 25.735 -124.01 23.92 -123.043 22.364 L -16.966 -112.996 C -14.387 -116.367 -10.195 -118.182 -5.359 -118.182 C -0.523 -118.182 3.669 -116.367 6.248 -112.996 L 112.324 22.105 C 113.614 23.661 113.936 25.476 113.936 27.55 C 113.936 33.514 107.811 38.441 100.395 38.441 Z " fill="rgb(91,11,11)" vector-effect="non-scaling-stroke" stroke-width="1" stroke="rgb(0,0,0)" stroke-linejoin="miter" stroke-linecap="butt" stroke-miterlimit="4"/><path d=" M -5.33 5.397 C -9.989 5.397 -13.483 6.602 -16.589 9.013 C -19.695 11.424 -21.247 14.438 -21.247 17.753 C -21.247 21.67 -19.695 24.684 -16.201 26.793 C -13.095 28.903 -9.213 30.108 -4.942 30.108 C -0.672 30.108 3.21 28.903 6.316 26.793 C 9.422 24.684 10.975 21.67 10.975 17.753 C 10.975 14.438 9.422 11.424 6.316 9.013 C 2.822 6.602 -1.06 5.397 -5.33 5.397 Z " fill="rgb(91,11,11)" vector-effect="non-scaling-stroke" stroke-width="1" stroke="rgb(0,0,0)" stroke-linejoin="miter" stroke-linecap="butt" stroke-miterlimit="4"/><path d=" M -4.554 -95.559 C -9.601 -95.559 -13.871 -94.354 -16.977 -91.641 C -20.083 -88.929 -21.636 -85.614 -21.636 -80.792 C -21.636 -77.477 -21.247 -71.752 -20.859 -64.217 L -17.365 -24.438 C -16.589 -19.315 -15.812 -15.397 -14.259 -12.986 C -12.707 -10.575 -9.989 -9.068 -6.107 -9.068 C -2.225 -9.068 0.493 -10.274 2.046 -12.986 C 3.599 -15.698 4.763 -19.315 5.152 -24.137 L 10.198 -65.122 C 10.587 -69.039 10.975 -72.656 10.975 -76.272 C 10.975 -82.6 9.81 -87.121 7.869 -90.436 C 5.54 -94.052 1.658 -95.559 -4.554 -95.559 Z " fill="rgb(91,11,11)" vector-effect="non-scaling-stroke" stroke-width="1" stroke="rgb(0,0,0)" stroke-linejoin="miter" stroke-linecap="butt" stroke-miterlimit="4"/></g><g transform="matrix(1,0,0,1,-253,78)"><text transform="matrix(1,0,0,1,16.622,19.239)" style="font-family:'Open Sans';font-weight:700;font-size:18px;font-style:italic;fill:#13435B;stroke:none;">Ratio is not supported, current AR is 1.44 but to see the </text><text transform="matrix(1,0,0,1,3.377,43.752)" style="font-family:'Open Sans';font-weight:700;font-size:18px;font-style:italic;fill:#13435B;stroke:none;">website you must provide a screen with bigger AR than 1.5</text></g></g></svg>